<svg height="2400" width="2400" xmlns="http://www.w3.org/2000/svg"><path d="m1341 784c35-54-6-191-128-272-121-81-276-75-312-21-35 53 40 19 177 70 226 84 228 277 263 223zm363 574c-283 696-1558 520-1531-383 3-115 35-192 68-302-211 864 966 1367 1449 685 18-25 23-23 14 0zm-239-449c0 283-228 513-509 513s-509-230-509-513 228-513 509-513 509 230 509 513zm287-288c-356-808-1826-510-1663 589-338-1101 1055-1606 1570-822 42 64 90 176 93 233zm-62 342c17-338-217-569-533-656-5 0-27-9 14-13 772 26 800 1260-41 1274 274-76 543-266 560-605z"/></svg>